<?xml version="1.0" standalone="no"?>
<!DOCTYPE svg PUBLIC "-//W3C//DTD SVG 20010904//EN"
 "http://www.w3.org/TR/2001/REC-SVG-20010904/DTD/svg10.dtd">
<svg version="1.0" xmlns="http://www.w3.org/2000/svg"
 width="1280.000000pt" height="1280.000000pt" viewBox="0 0 1280.000000 1280.000000"
 preserveAspectRatio="xMidYMid meet">
<metadata>
Created by potrace 1.15, written by Peter Selinger 2001-2017
</metadata>
<g transform="translate(0.000000,1280.000000) scale(0.100000,-0.100000)"
fill="#000000" stroke="none">
<path d="M1303 9706 c-102 -20 -165 -43 -215 -78 -61 -45 -75 -65 -97 -136
-16 -52 -18 -74 -10 -121 20 -129 72 -237 192 -398 40 -54 81 -111 92 -128 10
-16 120 -133 244 -259 276 -279 678 -627 967 -838 128 -94 269 -197 479 -353
61 -45 133 -97 160 -117 69 -50 466 -313 560 -371 l78 -48 -7 -77 c-16 -200
-18 -411 -7 -574 63 -867 519 -1636 1256 -2113 142 -92 425 -231 582 -285 365
-126 745 -182 1094 -160 340 21 608 83 929 212 276 112 587 302 763 466 32 30
63 52 70 49 1576 -662 2797 -987 3352 -891 216 37 319 130 317 287 -1 88 -23
162 -77 265 -215 406 -782 940 -1758 1658 -170 125 -725 505 -873 597 l-41 25
-6 179 c-13 372 -63 656 -163 921 -126 338 -240 534 -467 807 -216 259 -331
357 -715 608 -171 112 -333 185 -602 272 -383 124 -776 155 -1265 100 -110
-12 -365 -70 -487 -110 -246 -81 -460 -181 -645 -302 -61 -40 -117 -73 -123
-73 -6 0 -133 51 -283 114 -290 121 -557 227 -777 307 -74 27 -151 56 -170 64
-73 30 -439 153 -655 220 -399 124 -839 229 -1100 264 -44 6 -96 13 -115 16
-90 14 -407 14 -477 1z m607 -76 c33 -6 21 -7 -45 -3 -413 27 -629 -26 -701
-173 -66 -135 -11 -309 178 -565 90 -124 335 -387 529 -568 357 -335 1226
-991 1811 -1366 43 -28 78 -54 78 -58 0 -11 12 -18 -285 179 -298 197 -800
564 -1168 853 -142 111 -149 117 -327 275 -205 182 -526 510 -642 656 -52 65
-143 219 -177 300 -119 279 -13 439 319 479 84 10 361 5 430 -9z m223 -37 c-7
-2 -21 -2 -30 0 -10 3 -4 5 12 5 17 0 24 -2 18 -5z m105 -13 c34 -7 61 -15 59
-17 -7 -7 -147 20 -147 28 0 5 6 7 13 5 6 -2 40 -10 75 -16z m270 -61 c70 -17
134 -35 142 -40 12 -8 11 -9 -5 -5 -11 3 -78 19 -150 36 -121 29 -155 40 -126
40 6 0 69 -14 139 -31z m257 -69 c13 -5 14 -9 5 -9 -8 0 -24 4 -35 9 -13 5
-14 9 -5 9 8 0 24 -4 35 -9z m65 -20 c18 -12 2 -12 -25 0 -13 6 -15 9 -5 9 8
0 22 -4 30 -9z m51 -18 c-7 -2 -18 1 -23 6 -8 8 -4 9 13 5 13 -4 18 -8 10 -11z
m104 -22 c13 -5 14 -9 5 -9 -8 0 -24 4 -35 9 -13 5 -14 9 -5 9 8 0 24 -4 35
-9z m82 -26 c-3 -3 -12 -4 -19 -1 -8 3 -5 6 6 6 11 1 17 -2 13 -5z m-707 -45
c471 -44 1347 -303 2225 -656 50 -20 102 -41 118 -47 28 -11 37 -26 14 -26 -7
0 -87 30 -177 66 -506 203 -1083 395 -1495 498 -233 58 -399 88 -635 116 -98
11 -331 5 -395 -11 -125 -30 -213 -98 -236 -181 -38 -144 83 -381 343 -668
296 -327 870 -803 1453 -1204 218 -150 221 -152 213 -161 -15 -15 -693 469
-972 694 -38 31 -94 76 -125 100 -256 203 -629 561 -774 741 -290 361 -324
589 -107 700 106 54 268 66 550 39z m1310 -159 c8 -5 11 -10 5 -10 -5 0 -17 5
-25 10 -8 5 -10 10 -5 10 6 0 17 -5 25 -10z m190 -70 c8 -5 11 -10 5 -10 -5 0
-17 5 -25 10 -8 5 -10 10 -5 10 6 0 17 -5 25 -10z m110 -42 c10 -6 7 -7 -10
-2 -14 3 -32 11 -40 16 -10 6 -7 7 10 2 14 -3 32 -11 40 -16z m208 -78 c89
-35 161 -65 158 -67 -5 -5 -308 111 -334 127 -24 16 -10 11 176 -60z m269
-106 c32 -14 46 -22 31 -19 -16 3 -52 16 -80 30 -66 31 -29 23 49 -11z m199
-77 c130 -54 216 -96 200 -97 -8 0 -225 93 -301 130 -74 35 -28 20 101 -33z
m-719 -438 c133 -21 225 -41 353 -75 l98 -27 -73 -96 c-113 -150 -210 -309
-297 -487 l-81 -164 -76 69 c-356 323 -516 567 -456 695 21 43 47 63 119 88
66 23 260 22 413 -3z m5747 -2273 c538 -359 681 -465 1292 -967 265 -217 624
-571 765 -754 175 -226 251 -382 253 -519 1 -61 -3 -78 -27 -119 -70 -119
-266 -191 -512 -186 -318 5 -1035 163 -1643 361 -295 95 -1095 399 -1317 499
-81 37 -1 18 91 -21 83 -36 263 -107 609 -242 678 -265 1420 -475 1950 -552
232 -35 468 -29 607 14 278 86 294 330 44 670 -159 217 -547 609 -836 845
-250 204 -779 611 -945 727 -99 69 -287 196 -417 282 -216 142 -262 176 -242
176 3 0 151 -96 328 -214z m-19 -160 c628 -442 1144 -874 1431 -1199 337 -381
425 -628 271 -764 -78 -69 -250 -106 -451 -97 -440 19 -1062 177 -1896 481
-378 138 -450 166 -450 174 0 17 31 9 158 -40 741 -286 1328 -458 1842 -537
162 -25 449 -25 540 1 84 24 117 40 158 79 61 57 78 113 62 211 -51 320 -577
864 -1475 1527 -239 176 -488 348 -504 348 -6 0 -11 9 -11 20 0 23 24 9 325
-204z m-271 -428 c448 -446 448 -675 1 -669 -71 1 -155 5 -185 10 -77 11 -324
54 -328 56 -1 1 25 49 59 106 106 176 240 465 280 597 6 23 16 42 21 42 4 0
73 -64 152 -142z"/>
</g>
</svg>
